# xmcd CD database file
#
# Track frame offsets:
#	180
#	25224
#	44090
#	62984
#	81298
#	99849
#	114623
#	130920
#	152411
#	169299
#	188872
#	211134
#	231057
#	254552
#	273509
#	293315
#
# Disc length: 4193 seconds
#
# Revision: 0
# Processed by: cddbd v1.5.1PL0 Copyright (c) Steve Scherf et al.
# Submitted via: CDex 1.51
#
DISCID=e0105f10
DTITLE=Various Artist - Super Salsa
DYEAR=1900
DGENRE=Salsa
TTITLE0=Oscar D'Leon - Bravo De Verdad
TTITLE1=Miguel Araujo - Hay Muchas Cosas Que Me Gustan De Ti
TTITLE2=Hildemaro - Cada Vez
TTITLE3=Orquesta Son Dos - Yo Se
TTITLE4=Oscar D'Leon - Esposa
TTITLE5=Orquesta Son Dos - Desnudo Sin Tu Amor
TTITLE6=Kandanga - Perucho
TTITLE7=Hildemaro - Pobre De Quien Quiera Amarme Despues De Ti
TTITLE8=Romance En Salsa - Comienzame A Vivir
TTITLE9=Oscar D'Leon - De Ti Enamorado
TTITLE10=Miguel Araujo - Gabriela
TTITLE11=Orquesta Son Dos - Miento
TTITLE12=Oscar D'Leon - El Baile Del Suavecito
TTITLE13=Romance En Salsa - Enamorados
TTITLE14=Hildemaro - Tu Voz
TTITLE15=Oscar D'Leon - Detalles
EXTD=YEAR: 1900
EXTT0=
EXTT1=
EXTT2=
EXTT3=
EXTT4=
EXTT5=
EXTT6=
EXTT7=
EXTT8=
EXTT9=
EXTT10=
EXTT11=
EXTT12=
EXTT13=
EXTT14=
EXTT15=
PLAYORDER=
